<?xml version="1.0" encoding="UTF-8"?>
<svg width="50px" height="50px" viewBox="0 0 50 50" version="1.1" xmlns="http://www.w3.org/2000/svg" xmlns:xlink="http://www.w3.org/1999/xlink">
    <!-- Generator: Sketch 55.2 (78181) - https://sketchapp.com -->
    <title>商品占位图</title>
    <desc>Created with Sketch.</desc>
    <g id="优化点" stroke="none" stroke-width="1" fill="none" fill-rule="evenodd">
        <g id="优化-1-2-分类页-二级" transform="translate(-108.000000, -344.000000)">
            <g id="页面"></g>
            <g id="Group-4-Copy" transform="translate(90.000000, 326.000000)" fill="#F4F4F4">
                <g id="图层-4">
                    <path d="M44.9923081,35.522466 C44.9070783,35.9791194 44.6995621,36.4096674 44.3653128,36.827352 L37.8704274,44.5492199 L36.579751,52.3202717 C36.284411,53.6588297 35.4743569,54.3462689 34.1514413,54.3939394 C32.8429778,54.3462689 32.2634148,53.6588297 32.4146051,52.3202717 L33.704911,44.5492199 L29.7728502,36.827352 C29.6131369,36.4278276 29.5682986,35.9984146 29.6375941,35.522466 C29.952574,34.1982849 30.7244601,33.4885238 31.9380591,33.3939394 C32.6762237,33.4136129 33.1909379,33.7064461 33.4970242,34.2743307 L36.487851,40.3474039 L41.4660156,34.2743307 C41.9881411,33.696231 42.6147658,33.3999928 43.3455191,33.3939394 C44.5517068,33.4964689 45.1023658,34.2035816 44.9923081,35.522466 Z M59.4875401,33.3939394 C60.7948983,33.4582568 61.3520722,34.2175801 61.1646187,35.6639643 L58.4209818,52.1833135 C58.1427653,53.5899723 57.3340481,54.3269737 55.9981644,54.3939394 C54.6656148,54.3371888 54.0969566,53.6005657 54.2855214,52.1833135 L55.3365204,45.8537275 L48.223662,45.8537275 L47.1748858,52.1833135 C46.8855555,53.5899723 46.0705404,54.3269737 44.7224315,54.3939394 C43.4113687,54.3269737 42.8478969,53.5899723 43.0349799,52.1833135 L45.777135,35.6639643 C46.0720223,34.2175801 46.8855555,33.4582568 48.2099549,33.3939394 C49.5221291,33.4684719 50.0926396,34.2232551 49.9155591,35.6639643 L48.8930857,41.82292 L56.0063145,41.82292 L57.0265652,35.6639643 C57.3184887,34.2175801 58.1468404,33.4582568 59.4875401,33.3939394 Z M66.8169328,43.0002016 C66.8169328,42.5088013 66.806797,42.0113194 66.7763896,41.5089722 C66.0376915,29.7810492 55.9326913,20.8669195 44.2067718,21.6044253 C43.8009339,21.6319956 43.3987448,21.6668639 42.997772,21.7134902 C32.2607025,22.9963204 24.1694856,32.1800715 24.2619243,43.0002016 C24.2696275,43.3894295 24.2834122,43.7823064 24.3020621,44.1719397 C24.9560247,54.5858131 32.9949408,62.7762222 42.997772,63.9686381 C44.2594781,64.1202748 45.5544295,64.1579812 46.8692472,64.0756757 C58.0956738,63.3730383 66.7480093,54.0818441 66.8169328,43.0002016 Z M67.9999925,43.0002016 C68.0101207,56.1001529 57.8159253,67.1161132 44.5615253,67.9488987 C44.0377065,67.9776854 43.5110496,67.9999925 42.997772,67.9999925 C29.8974363,68.0101211 18.8842673,57.8155938 18.050698,44.5603567 C18.0174525,44.0369263 18.0000095,43.519983 18.0000095,43.0002016 C17.9886668,29.8957903 28.1796187,18.8826681 41.4303699,18.0527207 C41.9578376,18.0219068 42.4767912,18.0048781 42.997772,18.0000064 C56.0981077,17.9906875 67.1177637,28.1848094 67.9436298,41.4400464 C67.9793078,41.9598278 67.9967414,42.4808256 67.9999925,43.0002016 Z" id="商品占位图"></path>
                </g>
            </g>
        </g>
    </g>
</svg>